<svg xmlns="http://www.w3.org/2000/svg" xmlns:xlink="http://www.w3.org/1999/xlink" width="500" zoomAndPan="magnify" viewBox="0 0 375 374.999991" height="500" preserveAspectRatio="xMidYMid meet" version="1.2"><defs><clipPath id="7a447a7b48"><path d="M 109.125 181.933594 L 161.625 181.933594 L 161.625 234.433594 L 109.125 234.433594 Z M 109.125 181.933594 "/></clipPath><clipPath id="69a4bb68e6"><path d="M 109.125 130.183594 L 161.625 130.183594 L 161.625 182.683594 L 109.125 182.683594 Z M 109.125 130.183594 "/></clipPath><clipPath id="1346d79464"><path d="M 213.375 181.933594 L 265.875 181.933594 L 265.875 234.433594 L 213.375 234.433594 Z M 213.375 181.933594 "/></clipPath><clipPath id="e0afa5629e"><path d="M 213.375 208.183594 C 213.375 201.21875 216.140625 194.542969 221.0625 189.621094 C 225.984375 184.699219 232.664062 181.933594 239.625 181.933594 C 246.585938 181.933594 253.265625 184.699219 258.1875 189.621094 C 263.109375 194.542969 265.875 201.21875 265.875 208.183594 C 265.875 215.144531 263.109375 221.820312 258.1875 226.742188 C 253.265625 231.667969 246.585938 234.433594 239.625 234.433594 C 232.664062 234.433594 225.984375 231.667969 221.0625 226.742188 C 216.140625 221.820312 213.375 215.144531 213.375 208.183594 Z M 213.375 208.183594 "/></clipPath><clipPath id="7e559bee84"><path d="M 161.625 181.933594 L 214.125 181.933594 L 214.125 234.433594 L 161.625 234.433594 Z M 161.625 181.933594 "/></clipPath><clipPath id="497bfb539c"><path d="M 109.125 69.617188 L 214.125 69.617188 L 214.125 122.117188 L 109.125 122.117188 Z M 109.125 69.617188 "/></clipPath><clipPath id="14ca239f8c"><path d="M 214.125 95.867188 C 214.125 102.828125 211.359375 109.507812 206.4375 114.429688 C 201.515625 119.351562 194.835938 122.117188 187.875 122.117188 L 135.375 122.117188 C 128.414062 122.117188 121.734375 119.351562 116.8125 114.429688 C 111.890625 109.507812 109.125 102.828125 109.125 95.867188 C 109.125 88.90625 111.890625 82.230469 116.8125 77.304688 C 121.734375 72.382812 128.414062 69.617188 135.375 69.617188 L 187.875 69.617188 C 194.835938 69.617188 201.515625 72.382812 206.4375 77.304688 C 211.359375 82.230469 214.125 88.90625 214.125 95.867188 Z M 214.125 95.867188 "/></clipPath><clipPath id="f1bf27afc0"><path d="M 213.375 69.617188 L 265.875 69.617188 L 265.875 122.117188 L 213.375 122.117188 Z M 213.375 69.617188 "/></clipPath><clipPath id="8af721dc9c"><path d="M 213.375 121.367188 L 265.875 121.367188 L 265.875 173.867188 L 213.375 173.867188 Z M 213.375 121.367188 "/></clipPath><clipPath id="ae7f69b539"><path d="M 213.375 181.933594 L 239.625 181.933594 L 239.625 234.433594 L 213.375 234.433594 Z M 213.375 181.933594 "/></clipPath><clipPath id="f74768e930"><path d="M 132.058594 69.617188 L 214.125 69.617188 L 214.125 122.117188 L 132.058594 122.117188 Z M 132.058594 69.617188 "/></clipPath></defs><g id="da0839500c"><rect x="0" width="375" y="0" height="374.999991" style="fill:#ffffff;fill-opacity:1;stroke:none;"/><rect x="0" width="375" y="0" height="374.999991" style="fill:#ffffff;fill-opacity:1;stroke:none;"/><g clip-rule="nonzero" clip-path="url(#7a447a7b48)"><path style=" stroke:none;fill-rule:nonzero;fill:#fc7557;fill-opacity:1;" d="M 109.125 181.933594 L 161.625 181.933594 L 161.625 234.433594 L 109.125 234.433594 Z M 109.125 181.933594 "/></g><g clip-rule="nonzero" clip-path="url(#69a4bb68e6)"><path style=" stroke:none;fill-rule:nonzero;fill:#989cfc;fill-opacity:1;" d="M 161.625 130.183594 C 132.628906 130.183594 109.125 153.6875 109.125 182.683594 L 161.625 182.683594 Z M 161.625 130.183594 "/></g><g clip-rule="nonzero" clip-path="url(#1346d79464)"><g clip-rule="nonzero" clip-path="url(#e0afa5629e)"><path style=" stroke:none;fill-rule:nonzero;fill:#f9c558;fill-opacity:1;" d="M 213.375 234.433594 L 213.375 181.933594 L 265.875 181.933594 L 265.875 234.433594 Z M 213.375 234.433594 "/></g></g><g clip-rule="nonzero" clip-path="url(#7e559bee84)"><path style=" stroke:none;fill-rule:nonzero;fill:#989cfc;fill-opacity:1;" d="M 161.625 181.933594 C 161.625 210.925781 185.128906 234.433594 214.125 234.433594 L 214.125 181.933594 Z M 161.625 181.933594 "/></g><g clip-rule="nonzero" clip-path="url(#497bfb539c)"><g clip-rule="nonzero" clip-path="url(#14ca239f8c)"><path style=" stroke:none;fill-rule:nonzero;fill:#fc7557;fill-opacity:1;" d="M 214.125 69.617188 L 214.125 122.117188 L 109.125 122.117188 L 109.125 69.617188 Z M 214.125 69.617188 "/></g></g><g clip-rule="nonzero" clip-path="url(#f1bf27afc0)"><path style=" stroke:none;fill-rule:nonzero;fill:#989cfc;fill-opacity:1;" d="M 265.875 122.117188 C 265.875 93.121094 242.371094 69.617188 213.375 69.617188 L 213.375 122.117188 Z M 265.875 122.117188 "/></g><g clip-rule="nonzero" clip-path="url(#8af721dc9c)"><path style=" stroke:none;fill-rule:nonzero;fill:#f9c558;fill-opacity:1;" d="M 213.375 173.867188 C 242.371094 173.867188 265.875 150.363281 265.875 121.367188 L 213.375 121.367188 Z M 213.375 173.867188 "/></g><g clip-rule="nonzero" clip-path="url(#ae7f69b539)"><path style=" stroke:none;fill-rule:nonzero;fill:#fc7557;fill-opacity:1;" d="M 213.375 234.433594 L 213.375 181.933594 L 239.625 181.933594 L 239.625 234.433594 Z M 213.375 234.433594 "/></g><g clip-rule="nonzero" clip-path="url(#f74768e930)"><path style=" stroke:none;fill-rule:nonzero;fill:#f9c558;fill-opacity:1;" d="M 214.125 69.617188 L 214.125 122.117188 L 132.09375 122.117188 L 132.09375 69.617188 Z M 214.125 69.617188 "/></g></g></svg>